<?xml version="1.0" encoding="UTF-8"?>
<svg width="32px" height="31px" viewBox="0 0 32 31" version="1.1" xmlns="http://www.w3.org/2000/svg" xmlns:xlink="http://www.w3.org/1999/xlink">
    <!-- Generator: Sketch 45.2 (43514) - http://www.bohemiancoding.com/sketch -->
    <title>Shape</title>
    <desc>Created with Sketch.</desc>
    <defs></defs>
    <g id="do" stroke="none" stroke-width="1" fill="none" fill-rule="evenodd">
        <g id="photo4_test" transform="translate(-661.000000, -1113.000000)" fill-rule="nonzero" fill="#FFFFFF">
            <g id="edit_photo" transform="translate(587.000000, 1108.000000)">
                <path d="M86.1305442,9.27506642 C86.3066704,8.85892224 86.4123462,8.40809938 86.6589229,7.9919552 C86.9407249,7.50645365 87.2929774,7.09030947 87.6804551,6.67416529 C88.0327076,6.29269979 88.4201853,5.98059165 88.8428883,5.66848352 C89.1599155,5.46041143 89.512168,5.3216967 89.8644205,5.21766065 C91.2734304,4.80151647 92.6824403,5.04426725 94.0209997,5.42573275 C95.8879379,5.91123429 97.6492003,6.57012924 99.2695617,7.67984706 C100.678572,8.68552883 101.87623,9.93396138 103.179564,11.0436792 C104.412448,12.1187183 105.046502,13.575223 105.610106,15.0317276 C105.856683,15.6906226 105.715782,15.8293373 105.011277,15.864016 C104.306772,14.8930129 103.637492,13.9220098 102.897762,13.0203641 C102.510284,12.5348625 102.017131,12.153397 101.594428,11.7372528 C101.030824,11.2170726 100.46722,10.6622137 99.9036161,10.1420335 C99.1991112,9.48313851 98.3889305,8.92827961 97.5082993,8.54681411 C97.473074,8.51213542 97.4026235,8.51213542 97.3673983,8.47745674 C95.6765864,7.33306024 93.7391977,7.02095211 91.8018091,6.70884397 C91.0620789,6.57012924 90.3927992,6.4660932 89.653069,6.67416529 C88.5963115,6.95159474 88.1383833,7.43709629 88.1031581,8.47745674 C88.1031581,8.65085015 88.1031581,8.78956488 88.1031581,8.96295829 C88.1031581,9.86460401 88.4554105,10.4194629 89.4064922,10.7315711 C92.4006383,11.7372528 95.1129824,13.2977935 97.7901012,14.9276916 C99.3752374,15.8986946 100.889923,16.9737338 102.369383,18.1181303 C103.567042,19.019776 104.447673,20.2682086 105.222629,21.5513198 C105.43398,21.8634279 105.43398,22.2448934 105.293079,22.5570015 C104.940827,23.2852539 104.518124,24.0135062 104.130646,24.7417585 C104.060195,24.8457945 103.989745,24.9845093 103.884069,25.0538666 C103.038663,25.3659748 102.263708,25.9208337 101.277401,25.6087255 C101.1365,25.5740469 100.960374,25.4700108 100.819473,25.4700108 C98.7764082,25.4006535 97.2969478,24.2215783 95.8879379,22.938467 C93.7391977,20.9964609 91.4847819,19.1584907 89.512168,17.0084125 C88.4906358,15.8986946 87.8213561,14.5809047 87.2577521,13.2631148 C86.8702744,12.3614691 86.3066704,11.9453249 85.4260392,11.6678955 C83.9113535,11.1823939 82.3614426,10.8009284 80.7410812,10.6968924 C79.9309005,10.627535 79.1207198,10.7315711 78.3105391,10.8009284 C77.7821604,10.8356071 77.3242322,11.1130366 77.0072049,11.5291807 C76.6197272,12.049361 76.2674747,12.5695412 75.9504475,13.1244001 C75.8095465,13.3671509 75.8095465,13.7486164 75.879997,14.0607245 C76.020898,14.5462261 76.1970242,15.0317276 76.4788262,15.4478718 C77.0424302,16.3148388 77.7117099,17.1471272 78.3105391,17.9794156 C78.4162149,18.1181303 78.5571159,18.1874876 78.6627916,18.2915237 C80.7763065,17.4245566 82.8898214,17.8060221 85.0033362,18.2221663 C85.531715,18.3262024 86.0248684,18.6036318 86.4475714,18.91574 C87.7509056,19.8520644 89.0190145,20.8577461 90.0405467,22.1408574 C90.3575739,22.5570015 90.6393759,23.0425031 90.8859526,23.493326 C90.9564031,23.6667194 90.9564031,23.9094701 90.8859526,24.1175422 C90.6746012,24.9151519 90.3927992,25.7127616 90.1814477,26.5103713 C89.8996457,27.4813744 89.230366,27.8628399 88.2792843,27.9321972 C86.6236976,28.0362333 85.109012,27.6200891 83.7704526,26.6837647 C81.9035144,25.4006535 80.3536035,23.8401128 78.8036926,22.2448934 C78.6275664,22.0715 78.4514401,21.8981066 78.2753139,21.7247132 C78.2400886,21.6900345 78.1696381,21.7247132 78.0991876,21.6900345 C77.9935119,22.0715 78.1696381,22.4529655 78.3457644,22.730395 C78.7684673,23.3546112 79.1911703,23.9788275 79.719549,24.4990077 C81.3399104,26.1635845 83.2772991,27.4466957 85.3555887,28.5910922 C87.5747793,29.7701674 89.79397,30.9492425 91.9779353,32.1283177 C92.7176655,32.5097832 93.4221705,32.9606061 94.1619007,33.3073929 C94.7607299,33.5848224 95.4300096,33.7582158 96.0640641,34.0009665 C96.4163166,34.1396813 96.7333438,34.3130747 97.1208215,34.5211468 C95.8174874,35.3881138 94.5141532,35.7002219 93.1051433,35.3881138 C92.7528908,35.3187564 92.3654131,35.2840778 91.9779353,35.1800417 C91.5552324,35.0760057 91.0973041,34.9372909 90.6746012,34.7638975 C90.3575739,34.6598615 90.0053214,34.5211468 89.6882942,34.382432 C88.2792843,33.8275731 86.8702744,33.3073929 85.531715,32.6484979 C84.122705,31.9549243 82.7489204,31.0879573 81.4103609,30.2556689 C80.7763065,29.8395247 80.2479278,29.2846658 79.719549,28.7644856 C78.6627916,27.6894465 77.6764847,26.54505 76.8310787,25.2966174 C76.0561233,24.1868996 75.9504475,22.9731457 76.161799,21.6900345 C76.2322495,21.3432477 76.443601,20.9964609 76.6197272,20.6843527 C76.8310787,20.3028872 76.866304,19.9561004 76.5492767,19.6093136 C76.020898,19.019776 75.5277445,18.3608811 74.9993658,17.7713435 C73.9073831,16.5229109 73.6608064,14.7196195 74.5062123,13.2284361 C75.316393,11.8066102 76.3027,10.4888203 77.6764847,9.5178172 C78.0287371,9.27506642 78.4514401,9.03231565 78.9093683,8.89360092 C80.0365763,8.58149279 81.1990095,8.51213542 82.3614426,8.65085015 C83.5943263,8.85892224 84.82721,9.06699433 86.1305442,9.27506642 Z M103.531817,23.6667194 C103.567042,23.4239686 103.602267,23.3199325 103.602267,23.2505752 C103.567042,23.1118605 103.567042,22.9731457 103.496591,22.8691097 C102.756861,21.5859985 101.87623,20.441602 100.572896,19.6093136 C99.3400122,18.8117039 98.1071285,17.9794156 96.8390196,17.2164846 C94.7607299,16.0027307 92.6824403,14.8236555 90.6041507,13.679259 C90.4632497,13.6099016 90.2871234,13.6099016 90.0053214,13.575223 C90.1462224,13.8179737 90.2166729,13.9220098 90.2871234,14.0260458 C91.6961333,15.4131931 93.069918,16.8696977 94.5141532,18.2221663 C95.5709106,19.2278481 96.7333438,20.0948151 97.8253265,21.0311396 C98.9173092,22.0021426 100.114968,22.7997523 101.594428,23.1118605 C101.911455,23.1812178 102.193257,23.3546112 102.510284,23.4239686 C102.792086,23.5280046 103.144339,23.5626833 103.531817,23.6667194 Z M80.1070268,19.8173857 C80.2127025,20.0254578 80.2127025,20.1294938 80.283153,20.1641725 C81.6217124,21.3432477 82.9250466,22.5223229 84.263606,23.6320407 C85.4964897,24.6377225 86.9759501,25.123224 88.4906358,25.5740469 C88.7372125,25.6434042 89.0542398,25.6087255 89.3360417,25.6434042 C89.3360417,24.9498306 89.371267,24.8804732 89.0190145,24.4296504 C88.525861,23.8401128 88.0327076,23.2158965 87.4691036,22.730395 C86.7645986,22.1061787 85.9544179,21.6206771 85.2146877,21.0311396 C83.7352273,19.9214217 81.9739649,19.8867431 80.1070268,19.8173857 Z" id="Shape"></path>
            </g>
        </g>
    </g>
</svg>