<?xml version="1.0" encoding="UTF-8"?>
<svg width="165px" height="74px" viewBox="0 0 165 74" version="1.1" xmlns="http://www.w3.org/2000/svg" xmlns:xlink="http://www.w3.org/1999/xlink">
    <!-- Generator: Sketch 45.2 (43514) - http://www.bohemiancoding.com/sketch -->
    <title>Path 4</title>
    <desc>Created with Sketch.</desc>
    <defs></defs>
    <g id="Harmony-UI-Kit" stroke="none" stroke-width="1" fill="none" fill-rule="evenodd">
        <g id="Artboard" transform="translate(-48.000000, -32.000000)" stroke="#5F5D70" stroke-width="3">
            <path d="M54.8911085,95.6406784 C71.0502223,78.9202288 86.4326088,23.409011 66.1821271,35.7823985 C36.4035659,53.9776041 51.2059056,96.9402874 82.396423,103.573886 C104.339783,108.240799 103.869123,89.3570554 118.53827,74.1476612 C123.326953,69.1826172 125.738717,103.831063 141.142995,97.3725225 C149.065966,94.0506643 142.334288,69.7160262 150.172785,73.232582 L157.122849,70.0108982 C162.584412,72.4610989 165.366269,78.8095447 170.266714,82.2472465 C172.620759,83.8986277 174.542991,60.0892012 164.761114,75.3198701 C163.609935,77.1122885 160.679101,96.9114167 166.054325,101.652976 C168.153989,103.505118 171.823101,104.72916 174.274912,103.377257 C187.840695,95.8972258 199.453455,85.3227193 212.042727,76.2954504" id="Path-4"></path>
        </g>
    </g>
</svg>